Coordinates
version=1
nRows=16
nColumns=22
inDegrees=yes

Units are S.I. units (second, meters, Newtons, ...)
If the header above contains a line with 'inDegrees', this indicates whether rotational values are in degrees (yes) or radians (no).

endheader
time	pelvis_tilt	pelvis_list	pelvis_rotation	pelvis_tx	pelvis_ty	pelvis_tz	hip_flexion_r	hip_adduction_r	hip_rotation_r	knee_angle_r	ankle_angle_r	subtalar_angle_r	hip_flexion_l	hip_adduction_l	hip_rotation_l	knee_angle_l	ankle_angle_l	subtalar_angle_l	lumbar_extension	lumbar_bending	lumbar_rotation
      2.94000000	     -3.52586916	     -0.92230770	   -101.74110518	      0.09312413	      0.90756238	      0.93392272	     -4.74037673	      8.00432392	      6.77457357	    -27.28515108	     12.63464747	      2.08210418	     20.98818348	     -7.71878369	    -17.19215903	    -16.71270455	     -1.55884338	      0.72418512	     -6.70053162	      0.82861665	      6.98339734
      2.95000000	     -3.37117913	     -0.95641670	   -102.21853598	      0.09325627	      0.90817240	      0.94123629	     -4.43275847	      7.68756536	      7.06893033	    -28.67152992	     11.88044288	      2.83255525	     20.80715296	     -7.59830404	    -17.07396008	    -17.35027587	     -1.78077047	      0.13530494	     -6.62879833	      0.47712521	      7.03157641
      2.96000000	     -3.24966486	     -1.00080997	   -102.66064604	      0.09333691	      0.90894862	      0.94850959	     -4.04629435	      7.41105716	      7.29610358	    -30.17313426	     10.90760527	      3.72030204	     20.63847819	     -7.54555116	    -17.05895838	    -18.07402482	     -1.83107624	     -0.28536095	     -6.57200495	      0.15370193	      7.04754983
      2.97000000	     -3.14234960	     -1.04906471	   -103.06957585	      0.09340857	      0.90989400	      0.95572111	     -3.55741152	      7.15092000	      7.44987373	    -31.80171499	      9.69496508	      4.68037011	     20.45357942	     -7.52079909	    -17.12401520	    -18.80589778	     -1.76591551	     -0.51828149	     -6.52084908	     -0.14755152	      7.01274314
      2.98000000	     -3.04723328	     -1.09299431	   -103.43153832	      0.09349231	      0.91097093	      0.96284202	     -2.94879234	      6.90260020	      7.50070645	    -33.56066232	      8.25949570	      5.77475902	     20.24586829	     -7.50445969	    -17.23318692	    -19.49731554	     -1.60847461	     -0.62245257	     -6.46735747	     -0.43026104	      6.91644649
      2.99000000	     -2.94607219	     -1.13767653	   -103.75730449	      0.09362637	      0.91218349	      0.96985432	     -2.22752110	      6.64111436	      7.48082668	    -35.42758712	      6.57384864	      6.88003021	     19.98601494	     -7.45784829	    -17.35013080	    -20.08544023	     -1.42313037	     -0.62398785	     -6.41557049	     -0.70757212	      6.79450916
      3.00000000	     -2.84103545	     -1.18023231	   -104.04367726	      0.09383937	      0.91348675	      0.97673582	     -1.39117876	      6.36418387	      7.38656036	    -37.39462732	      4.68636663	      7.99841594	     19.67035454	     -7.37550697	    -17.49312873	    -20.54261227	     -1.23262812	     -0.57671339	     -6.36578125	     -0.97152173	      6.63133360
      3.01000000	     -2.73882095	     -1.22316482	   -104.29298471	      0.09415476	      0.91484994	      0.98346967	     -0.45274491	      6.07385203	      7.23310405	    -39.44097477	      2.64478693	      9.09674599	     19.28635523	     -7.25490759	    -17.65733327	    -20.84120216	     -1.03966902	     -0.52261102	     -6.32454391	     -1.21078615	      6.42562617
      3.02000000	     -2.64278398	     -1.26704283	   -104.51254161	      0.09456417	      0.91623070	      0.99003189	      0.57666333	      5.77313523	      7.04066366	    -41.54945076	      0.53308333	     10.12434166	     18.83429238	     -7.10042662	    -17.86089705	    -20.97618371	     -0.87002022	     -0.49277997	     -6.29693375	     -1.42365151	      6.18586638
      3.03000000	     -2.56421221	     -1.31578175	   -104.70723411	      0.09507452	      0.91759611	      0.99641790	      1.67465959	      5.46953987	      6.82287654	    -43.69490429	     -1.55569887	     11.06676115	     18.30986449	     -6.92109697	    -18.09761602	    -20.94961038	     -0.69233937	     -0.51158486	     -6.29021259	     -1.59524806	      5.91254786
      3.04000000	     -2.49797040	     -1.37520692	   -104.88719894	      0.09566231	      0.91891602	      1.00261536	      2.82127187	      5.15349076	      6.58651259	    -45.85521489	     -3.51120435	     11.85489958	     17.71910307	     -6.71849207	    -18.38372170	    -20.78328440	     -0.52854511	     -0.58237427	     -6.31142520	     -1.73718263	      5.61142067
      3.05000000	     -2.44687560	     -1.44344726	   -105.05504904	      0.09632502	      0.92015366	      1.00863066	      3.99613654	      4.82574812	      6.33634217	    -47.99491958	     -5.24207678	     12.49765268	     17.07542921	     -6.49977593	    -18.70652200	    -20.50215625	     -0.33787559	     -0.70366117	     -6.35676284	     -1.84479849	      5.28424785
      3.06000000	     -2.39771224	     -1.52352584	   -105.21474038	      0.09704791	      0.92129229	      1.01446464	      5.17857328	      4.46760296	      6.06610810	    -50.07835644	     -6.65753904	     12.94681379	     16.39305052	     -6.25816065	    -19.06312979	    -20.13653958	     -0.13502473	     -0.84773905	     -6.42725856	     -1.93805942	      4.93595429
      3.07000000	     -2.34063904	     -1.61338403	   -105.36631794	      0.09781612	      0.92231987	      1.02012733	      6.34884142	      4.07075613	      5.78176454	    -52.06067091	     -7.68759685	     13.20945931	     15.68877235	     -5.98877718	    -19.43250739	    -19.71152469	      0.09031890	     -0.99573954	     -6.51593923	     -2.02900049	      4.56347836
      3.08000000	     -2.26620842	     -1.71335045	   -105.50796304	      0.09861988	      0.92325896	      1.02563929	      7.48489876	      3.62605647	      5.48712271	    -53.89442541	     -8.28723263	     13.29438559	     14.96930473	     -5.68303245	    -19.79256426	    -19.23717428	      0.32796131	     -1.12306180	     -6.61710394	     -2.13056669	      4.16632934
      3.09000000	     -2.15818552	     -1.82977410	   -105.62981192	      0.09946445	      0.92411259	      1.03100168	      8.57371931	      3.11311504	      5.17489248	    -55.55919495	     -8.40214224	     13.22005216	     14.25395486	     -5.32672363	    -20.11962404	    -18.75326675	      0.57363581	     -1.24278353	     -6.73523041	     -2.26668126	      3.75449729
